<svg xmlns="http://www.w3.org/2000/svg" width="233" height="46" viewBox="0 0 233 46">
  <path fill="#FFFFFF" fill-rule="evenodd" d="M9.57075711,22.8768116 C9.57075711,10.4504047 19.7756209,0.376811594 32.3417727,0.376811594 L44.62487,0.376811594 C57.2009547,0.376811594 67.3958856,10.4476725 67.3958856,22.8768116 C67.3958856,35.3032185 57.1910218,45.3768116 44.62487,45.3768116 L32.3417727,45.3768116 C19.765688,45.3768116 9.57075711,35.3059507 9.57075711,22.8768116 L9.57075711,22.8768116 Z M17.9816849,14.0292472 C17.9816849,9.71494915 21.5130893,6.21751956 25.8875283,6.21751956 L51.0791144,6.21751956 C55.4453911,6.21751956 58.9849578,9.72021796 58.9849578,14.0292472 L58.9849578,31.724376 C58.9849578,36.038674 55.4535534,39.5361036 51.0791144,39.5361036 L25.8875283,39.5361036 C21.5212516,39.5361036 17.9816849,36.0334052 17.9816849,31.724376 L17.9816849,14.0292472 L17.9816849,14.0292472 Z M53.2260011,16.1766588 L53.2338593,16.1740798 L53.2338593,16.1740798 C52.628117,14.3228235 50.9012755,12.9874311 48.8655603,12.9874311 C46.8209552,12.9874311 45.0885137,14.3342854 44.4897332,16.1973475 L44.4897332,16.1973475 L44.4956586,16.1992921 C44.4322336,16.3549523 44.3972549,16.5254717 44.3972549,16.7042452 C44.3972549,17.4375278 44.9856457,18.0316789 45.7114624,18.0316789 C46.3305676,18.0316789 46.8494976,17.599465 46.9888646,17.0175366 L46.9902059,17.0179768 C47.2468261,16.2195216 47.989301,15.6422983 48.8655603,15.6422983 C49.7331395,15.6422983 50.4698179,16.2082377 50.7332961,16.9947389 L50.7367543,16.9936039 C50.8674719,17.5876712 51.392216,18.0316789 52.0196582,18.0316789 C52.7456346,18.0316789 53.3338657,17.4373666 53.3338657,16.7042452 C53.3338657,16.5167515 53.295398,16.3383539 53.2260011,16.1766588 L53.2260011,16.1766588 L53.2260011,16.1766588 Z M32.9872061,16.1766588 L32.9950643,16.1740798 L32.9950643,16.1740798 C32.389322,14.3228235 30.6624806,12.9874311 28.6267654,12.9874311 C26.5821602,12.9874311 24.8497188,14.3342854 24.2509383,16.1973475 L24.2509383,16.1973475 L24.2568636,16.1992921 C24.1934386,16.3549523 24.15846,16.5254717 24.15846,16.7042452 C24.15846,17.4375278 24.7468507,18.0316789 25.4726674,18.0316789 C26.0917726,18.0316789 26.6107026,17.599465 26.7500696,17.0175366 L26.7514109,17.0179768 C27.0080311,16.2195216 27.750506,15.6422983 28.6267654,15.6422983 C29.4943445,15.6422983 30.231023,16.2082377 30.4945011,16.9947389 L30.4979594,16.9936039 C30.6286769,17.5876712 31.153421,18.0316789 31.7808633,18.0316789 C32.5068396,18.0316789 33.0950707,17.4373666 33.0950707,16.7042452 C33.0950707,16.5167515 33.056603,16.3383539 32.9872061,16.1766588 L32.9872061,16.1766588 L32.9872061,16.1766588 Z M38.8775862,34.3591125 C33.4006724,34.3591125 28.8384236,32.0269138 27.8382409,26.7927408 L49.9169263,26.7927408 C48.9166959,32.0270216 44.3541775,34.3591125 38.8775862,34.3591125 L38.8775862,34.3591125 Z M65.8986307,35.959064 C66.0716069,35.9183918 66.2526255,35.8505159 66.4390172,35.7537864 L74.0272167,31.8158327 C75.3188102,31.1455506 76.3658537,29.4132884 76.3658537,27.9485219 L76.3658537,17.4812234 C76.3658537,16.0156488 75.3143443,14.2933582 74.0182228,13.6348775 L66.4496213,9.78973167 C66.1697331,9.64753747 65.9018792,9.56969273 65.6550277,9.55062103 C68.1872613,13.3837138 69.6633956,17.9893274 69.6633956,22.9431833 C69.6633956,27.7356759 68.2816746,32.2024161 65.8986307,35.959064 L65.8986307,35.959064 Z M11.0930955,35.9570993 C10.9226237,35.9162217 10.7444049,35.8489748 10.5609828,35.7537864 L2.9727833,31.8158327 C1.68118984,31.1455506 0.634146341,29.4132884 0.634146341,27.9485219 L0.634146341,17.4812234 C0.634146341,16.0156488 1.68565569,14.2933582 2.98177717,13.6348775 L10.5503787,9.78973167 C10.8331837,9.64605562 11.1037022,9.56807724 11.352683,9.55004392 C8.81573547,13.385456 7.33660442,17.9953887 7.33660442,22.9542706 C7.33660442,27.7412141 8.71512749,32.2031592 11.0930955,35.9570993 Z M92.9326172,11.0253906 L102.606445,11.0253906 C105.602554,11.0253906 107.786126,11.6760189 109.157227,12.9772949 C110.528327,14.278571 111.213867,15.9575092 111.213867,18.0141602 L111.213867,30.0112305 C111.213867,32.0678814 110.525153,33.7468197 109.147705,35.0480957 C107.770257,36.3493717 105.589859,37 102.606445,37 L92.9326172,37 L92.9326172,11.0253906 Z M97.8457031,15.3481445 L97.8457031,32.6772461 L102.092285,32.6772461 C103.679207,32.6772461 104.777341,32.3693878 105.386719,31.7536621 C105.996097,31.1379364 106.300781,30.1699285 106.300781,28.8496094 L106.300781,19.1757812 C106.300781,17.8554621 105.996097,16.8874543 105.386719,16.2717285 C104.777341,15.6560028 103.679207,15.3481445 102.092285,15.3481445 L97.8457031,15.3481445 Z M121.573242,11.0253906 L121.573242,37 L116.660156,37 L116.660156,11.0253906 L121.573242,11.0253906 Z M132.522949,37 L127.609863,37 L127.609863,11.0253906 L143.663086,11.0253906 L143.663086,15.3481445 L132.522949,15.3481445 L132.522949,22.2607422 L142.806152,22.2607422 L142.806152,26.5834961 L132.522949,26.5834961 L132.522949,37 Z M152.879883,37 L147.966797,37 L147.966797,11.0253906 L164.02002,11.0253906 L164.02002,15.3481445 L152.879883,15.3481445 L152.879883,22.2607422 L163.163086,22.2607422 L163.163086,26.5834961 L152.879883,26.5834961 L152.879883,37 Z M179.235352,37 L168.32373,37 L168.32373,11.0253906 L178.530762,11.0253906 C183.126488,11.0253906 185.430664,12.8725401 185.443359,16.5668945 L185.443359,19.2519531 C185.443359,20.3183647 185.214846,21.1784635 184.757812,21.8322754 C184.300779,22.4860873 183.564458,23.0288064 182.548828,23.4604492 C183.742193,23.7143567 184.672116,24.2602497 185.338623,25.0981445 C186.00513,25.9360393 186.338379,26.9897397 186.338379,28.2592773 L186.338379,31.0395508 C186.338379,32.905771 185.732184,34.3657174 184.519775,35.4194336 C183.307367,36.4731498 181.54591,37 179.235352,37 Z M181.425293,30.4111328 L181.425293,28.449707 C181.425293,27.5610307 181.209475,26.9040549 180.777832,26.4787598 C180.346189,26.0534647 179.647954,25.8408203 178.683105,25.8408203 L173.236816,25.8408203 L173.236816,32.9438477 L178.26416,32.9438477 C179.406744,32.9438477 180.219236,32.7565937 180.70166,32.3820801 C181.184084,32.0075665 181.425293,31.3505906 181.425293,30.4111328 Z M180.530273,19.4804687 L180.530273,17.1953125 C180.530273,15.7861258 179.667001,15.081543 177.94043,15.081543 L173.236816,15.081543 L173.236816,21.8989258 L177.902344,21.8989258 C179.654306,21.8989258 180.530273,21.0927815 180.530273,19.4804687 Z M209.875488,18.6235352 L209.875488,29.4018555 C209.875488,31.7885862 209.094734,33.7150806 207.533203,35.1813965 C205.971672,36.6477124 203.477068,37.3808594 200.049316,37.3808594 C196.621565,37.3808594 194.126961,36.6477124 192.56543,35.1813965 C191.003898,33.7150806 190.223145,31.7885862 190.223145,29.4018555 L190.223145,18.6235352 C190.223145,16.2368045 191.003898,14.3103101 192.56543,12.8439941 C194.126961,11.3776782 196.621565,10.6445312 200.049316,10.6445312 C203.477068,10.6445312 205.971672,11.3776782 207.533203,12.8439941 C209.094734,14.3103101 209.875488,16.2368045 209.875488,18.6235352 Z M195.13623,18.9091797 L195.13623,29.1162109 C195.13623,30.4111393 195.513912,31.3918424 196.269287,32.0583496 C197.024662,32.7248568 198.284659,33.0581055 200.049316,33.0581055 C201.813974,33.0581055 203.073971,32.7280306 203.829346,32.0678711 C204.584721,31.4077115 204.962402,30.4238347 204.962402,29.1162109 L204.962402,18.9091797 C204.962402,17.6142513 204.584721,16.6335483 203.829346,15.967041 C203.073971,15.3005338 201.813974,14.9672852 200.049316,14.9672852 C198.284659,14.9672852 197.024662,15.3005338 196.269287,15.967041 C195.513912,16.6335483 195.13623,17.6142513 195.13623,18.9091797 Z M220.425293,37 L220.425293,15.3481445 L213.169922,15.3481445 L213.169922,11.0253906 L232.59375,11.0253906 L232.59375,15.3481445 L225.338379,15.3481445 L225.338379,37 L220.425293,37 Z"/>
</svg>
