<svg xmlns="http://www.w3.org/2000/svg" xmlns:xlink="http://www.w3.org/1999/xlink" width="1024" height="401"><defs><path id="b" d="M0 0h1024v401H0z"/><path id="a" d="M.14 46.91h67.72V.24H.14z"/><mask id="d" width="67.72" height="46.67" x="0" y="0" fill="#fff"><use xlink:href="#a"/></mask></defs><g fill="none" fill-rule="evenodd"><mask id="c" fill="#fff"><use xlink:href="#b"/></mask><use fill="#FFF" xlink:href="#b"/><path fill="#F9C44F" d="M238.52 261.52h7.82c15.5 0 28.1-12.6 28.1-28.1a28.12 28.12 0 0 0-28.1-28.07H0v20h246.34a8.1 8.1 0 1 1 0 16.17h-122.8a44.2 44.2 0 0 0-44.16 44.12 44.21 44.21 0 0 0 44.17 44.16h234.97v-20H123.55a24.19 24.19 0 0 1-24.17-24.16 24.17 24.17 0 0 1 24.17-24.12h114.97z" mask="url(#c)"/><path fill="#00305C" d="M135.04 253.52h8v-4h-8v4zm16 0h8v-4h-8v4zm16 0h8v-4h-8v4zm16 0h8v-4h-8v4zm16 0h8v-4h-8v4zm16 0h8v-4h-8v4zm16 0h8v-4h-8v4zm-111.73.27l-.52-3.96c1.57-.2 3.17-.31 4.76-.31h3.49v4h-3.5c-1.4 0-2.83.09-4.23.27zm-13.93 5.35l-2.26-3.3a36.1 36.1 0 0 1 7.48-3.94l1.43 3.74a32.1 32.1 0 0 0-6.65 3.5zm-10.03 11.05l-3.5-1.93a36.18 36.18 0 0 1 4.9-6.87l2.97 2.69a32.21 32.21 0 0 0-4.37 6.1zm-3.95 14.38l-4-.13c.1-2.83.52-5.64 1.26-8.36l3.86 1.06c-.66 2.41-1.04 4.91-1.12 7.43zm-.65 16.3a35.88 35.88 0 0 1-2.64-8.02l3.92-.8c.5 2.47 1.29 4.87 2.35 7.14l-3.63 1.69zm10.42 13.16a36.42 36.42 0 0 1-5.98-5.96l3.14-2.49a32.51 32.51 0 0 0 5.32 5.31l-2.48 3.14zm15.22 7.06a35.84 35.84 0 0 1-8.03-2.63l1.68-3.63a32.12 32.12 0 0 0 7.14 2.34l-.8 3.92zm8.35.7h8v-4h-8v4zm16 0h8v-4h-8v4zm16 0h8v-4h-8v4zm16 0h8v-4h-8v4zm16 0h8v-4h-8v4zm16 0h8v-4h-8v4zm16 0h8v-4h-8v4zm16 0h8v-4h-8v4zm16 0h8v-4h-8v4zm16 0h8v-4h-8v4zm16 0h8v-4h-8v4zm16 0h8v-4h-8v4zm16 0h8v-4h-8v4zm16 0h8v-4h-8v4zm16 0h3.78v-4h-3.78v4zm-104.22-68.27v-4h1.82c8.88 0 16.1-7.22 16.1-16.1a16.1 16.1 0 0 0-16.1-16.07H104.52v-4h141.82c11.08 0 20.1 9 20.1 20.08 0 11.08-9.02 20.1-20.1 20.1h-1.82z" mask="url(#c)"/><g mask="url(#c)"><path fill="#00305C" d="M397.92 122.12h-4V89.6a6.75 6.75 0 0 0-13.48 0v32.52h-4V89.6a10.75 10.75 0 0 1 21.48 0v32.52zm-12.74-9.26h4V94.19h-4v18.67zm-12-26h-4c0-.75.05-1.5.14-2.25l3.97.5c-.07.57-.1 1.16-.1 1.75zm12.16-13.88l-.52-3.97c.78-.1 1.57-.15 2.35-.15h.02c.78 0 1.57.05 2.34.15l-.51 3.97a14.02 14.02 0 0 0-3.67 0zm10.39 2.78a13.98 13.98 0 0 0-3.18-1.84l1.54-3.7c1.46.61 2.83 1.4 4.08 2.38l-2.44 3.16zm-17.1.01l-2.44-3.16a17.99 17.99 0 0 1 4.07-2.37l1.54 3.69a13.9 13.9 0 0 0-3.17 1.84zm21.51 5.78a14.03 14.03 0 0 0-1.82-3.18l3.18-2.43a18 18 0 0 1 2.34 4.09l-3.7 1.52zm-25.92 0l-3.7-1.5c.6-1.46 1.39-2.84 2.35-4.1l3.18 2.43c-.75.97-1.36 2.05-1.83 3.18zm30.96 5.3h-4c0-.58-.03-1.17-.1-1.74l3.97-.5c.09.74.14 1.5.14 2.25zm34.08 35.27h-4V89.6a6.75 6.75 0 0 0-13.48 0v32.52h-4V89.6a10.75 10.75 0 0 1 21.48 0v32.52zm-12.74-9.26h4V94.19h-4v18.67zm-12-26h-4c0-.75.04-1.5.14-2.25l3.97.5c-.07.57-.11 1.16-.11 1.75zm12.16-13.88l-.52-3.97c.77-.1 1.57-.15 2.35-.15h.01c.78 0 1.57.05 2.34.15l-.51 3.97a14.03 14.03 0 0 0-3.67 0zm10.38 2.78a13.94 13.94 0 0 0-3.17-1.84l1.54-3.7c1.45.61 2.82 1.4 4.08 2.38l-2.45 3.16zm-17.1.01l-2.44-3.16a17.96 17.96 0 0 1 4.08-2.37l1.54 3.69c-1.13.47-2.2 1.09-3.17 1.84zm21.52 5.78a14.03 14.03 0 0 0-1.83-3.18l3.18-2.43a17.92 17.92 0 0 1 2.35 4.09l-3.7 1.52zm-25.92 0l-3.7-1.5c.6-1.46 1.38-2.84 2.34-4.1l3.18 2.43a14 14 0 0 0-1.82 3.18zm30.96 5.3h-4c0-.58-.04-1.17-.1-1.74l3.96-.5c.1.74.14 1.5.14 2.25zm34.07 35.27h-4V89.6a6.75 6.75 0 0 0-13.48 0v32.52h-4V89.6a10.75 10.75 0 0 1 21.48 0v32.52zm-12.74-9.26h4V94.19h-4v18.67zm-12-26h-4c0-.75.05-1.5.14-2.25l3.97.5c-.07.57-.1 1.16-.1 1.75zm12.16-13.88l-.52-3.97c.77-.1 1.57-.15 2.35-.15h.01c.79 0 1.57.05 2.35.15l-.52 3.97a14.02 14.02 0 0 0-3.67 0zm10.38 2.78a13.98 13.98 0 0 0-3.17-1.84l1.54-3.7c1.45.61 2.82 1.4 4.08 2.38l-2.45 3.16zm-17.1.01l-2.44-3.16a18 18 0 0 1 4.08-2.37l1.54 3.69c-1.13.47-2.2 1.09-3.17 1.84zm21.52 5.78a14.03 14.03 0 0 0-1.83-3.18l3.18-2.43a18 18 0 0 1 2.35 4.09l-3.7 1.52zm-25.92 0l-3.7-1.5c.6-1.46 1.38-2.84 2.34-4.1l3.18 2.43c-.74.97-1.36 2.05-1.82 3.18zm30.96 5.3h-4c0-.58-.04-1.17-.1-1.74l3.96-.5c.1.74.14 1.5.14 2.25z"/><path fill="#F9C44F" d="M371.85 130.86h30.67v-17h-30.67v17zm41.34 0h30.66v-17h-30.67v17zm41.33 0h30.67v-17h-30.67v17z"/><path fill="#00305C" d="M371.85 115.86h30.67v-4h-30.67m41.33 4h30.67v-4h-30.67m41.34 4h30.66v-4h-30.66"/></g><path fill="#00305C" d="M407.98 140.07h10.66c3.3 0 5.71.72 7.23 2.15a7.32 7.32 0 0 1 2.26 5.55V161a7.3 7.3 0 0 1-2.28 5.55c-1.52 1.44-3.92 2.16-7.2 2.16h-10.67v-28.64zm5.41 4.76v19.11h4.69c1.75 0 2.96-.34 3.63-1.02.67-.68 1-1.74 1-3.2v-10.67c0-1.45-.33-2.52-1-3.2-.67-.68-1.88-1.02-3.63-1.02h-4.69zm26.16-4.76v28.64h-5.41v-28.64h5.41zm12.08 28.64h-5.42v-28.64h17.7v4.77h-12.28v7.62h11.34v4.76h-11.34v11.49zm22.44 0h-5.41v-28.64h17.7v4.77h-12.29v7.62h11.34v4.76h-11.34v11.49zm29.06 0H491.1v-28.64h11.25c5.07 0 7.61 2.04 7.63 6.11v2.96c0 1.18-.26 2.12-.76 2.85a5.5 5.5 0 0 1-2.43 1.79c1.31.28 2.34.88 3.07 1.8.74.93 1.1 2.1 1.1 3.5v3.06c0 2.05-.66 3.66-2 4.83-1.34 1.16-3.28 1.74-5.83 1.74zm2.42-7.27v-2.16c0-.98-.24-1.7-.72-2.18-.47-.47-1.24-.7-2.3-.7h-6.01v7.83h5.54c1.26 0 2.16-.2 2.69-.62.53-.4.8-1.13.8-2.17zm-.99-12.05v-2.52c0-1.55-.95-2.33-2.86-2.33h-5.18v7.52h5.14c1.93 0 2.9-.9 2.9-2.67zm32.35-.94v11.88c0 2.63-.86 4.75-2.58 6.37-1.72 1.62-4.47 2.43-8.25 2.43-3.78 0-6.53-.81-8.25-2.43a8.33 8.33 0 0 1-2.58-6.37v-11.89c0-2.63.86-4.75 2.58-6.37 1.72-1.61 4.47-2.42 8.25-2.42 3.78 0 6.53.8 8.25 2.42a8.34 8.34 0 0 1 2.58 6.37zm-16.25.31v11.25c0 1.43.42 2.51 1.25 3.25.84.73 2.22 1.1 4.17 1.1 1.95 0 3.33-.36 4.17-1.09.83-.73 1.25-1.81 1.25-3.26v-11.25c0-1.43-.42-2.51-1.25-3.24-.83-.74-2.22-1.1-4.17-1.1-1.95 0-3.33.36-4.17 1.1-.83.73-1.25 1.81-1.25 3.24zm27.1 19.95v-23.88h-8v-4.76h21.43v4.76h-8v23.88h-5.42z" mask="url(#c)"/><path fill="#B7BEC0" d="M655.68 137h-.16V63.52c0-28.12 22.88-51 51-51h121.66c28.12 0 51 22.88 51 51v14h-40v-14c0-6.06-4.94-11-11-11H706.52c-6.06 0-11 4.94-11 11v44.75h.16v73.48c0 28.12-22.88 51-51 51h-20.66v-40h20.66c6.06 0 11-4.93 11-11V137z" mask="url(#c)"/><path fill="#00305C" d="M697.52 137h-4V63.52c0-7.16 5.83-13 13-13h121.66c7.17 0 13 5.84 13 13h-4c0-4.96-4.04-9-9-9H706.52c-4.96 0-9 4.04-9 9V137zm183.66-59.48h-4v-14c0-27.01-21.98-49-49-49H706.52c-27.02 0-49 21.99-49 49h-4c0-29.22 23.78-53 53-53h121.66c29.22 0 53 23.78 53 53v14zm-236.5 117.23h-20.66v-4h20.66c4.96 0 9-4.04 9-9v-73.48h4v73.48c0 7.17-5.83 13-13 13zm-375.75 89.18h-4.23v4h4.23v4.24h4v-4.24h4.24v-4h-4.24v-4.23h-4v4.23zm66-15h-9.35v4h9.35v9.35h4v-9.35h9.36v-4h-9.36v-9.35h-4v9.35zm-30.64-76.32h18.04v-4H304.3v4zm21.48 0h6.01v-4h-6.01v4zm-5.22-9.05h27.64v-4h-27.64v4zm-100.03-26.04h5.77v-4h-5.77v4zm-1.8-6.43l-3.46-2 2.89-5 3.46 2-2.88 5zm-9.92.34l-2.89-5 3.47-2 2.88 5-3.46 2zm-6.98 6.77h5.77v-4h-5.77v4zm8.15 9.43l-3.47-2 2.89-5 3.46 2-2.88 5zm8.77-.34l-2.89-5 3.47-2 2.88 5-3.46 2zm10.2 175.64h-4.24v4h4.23v4.24h4v-4.24h4.24v-4h-4.23v-4.23h-4v4.23zm-80.38-216.31c-.96-.4-1.99-.6-3.04-.6l-.03-4h.03c1.58 0 3.11.3 4.56.9l-1.52 3.7zm-8.7 1.76l-2.84-2.82c1.12-1.12 2.42-2 3.88-2.61l1.54 3.69c-.97.4-1.84.99-2.59 1.74zm13.04 2.56c-.4-.97-.99-1.85-1.74-2.6l2.82-2.83a12 12 0 0 1 2.61 3.88l-3.69 1.55zm-19.12 3.1h-.26c0-1.6.3-3.13.9-4.58l3.7 1.52c-.4.96-.6 1.99-.6 3.04l-3.74.02zm22.83 4.58l-3.7-1.53c.4-.97.61-2 .61-3.06l4-.05v.04c0 1.6-.3 3.14-.9 4.6zm-19.56 3.9c-1.12-1.12-2-2.42-2.6-3.88l3.68-1.54c.4.97 1 1.84 1.74 2.59l-2.82 2.83zm13.07 2.6l-1.53-3.7c.97-.4 1.84-1 2.59-1.74l2.83 2.83c-1.12 1.12-2.43 2-3.89 2.6zm-4.59.9c-1.6 0-3.14-.3-4.59-.9l1.53-3.7c.97.4 2 .6 3.05.6l.01 4zM288.67 345h63.2v-4h-63.2m326 4h63.2v-4h-63.2" mask="url(#c)"/><path fill="#FFF" d="M923.16 335.1a7.9 7.9 0 0 1-7.9 7.9H804.59a7.9 7.9 0 0 1-7.9-7.9V101.9a7.9 7.9 0 0 1 7.9-7.9h110.67a7.9 7.9 0 0 1 7.9 7.9v233.2" mask="url(#c)"/><path fill="#00305C" d="M804.59 96a5.9 5.9 0 0 0-5.9 5.9v233.2c0 3.25 2.64 5.9 5.9 5.9h110.67c3.25 0 5.9-2.65 5.9-5.9V101.9c0-3.25-2.65-5.9-5.9-5.9H804.59zm110.67 249H804.59a9.91 9.91 0 0 1-9.9-9.9V101.9c0-5.45 4.44-9.9 9.9-9.9h110.67c5.46 0 9.9 4.45 9.9 9.9v233.2c0 5.46-4.44 9.9-9.9 9.9z" mask="url(#c)"/><path fill="#00305C" d="M838.8 108.66h42.25v-4H838.8M857 326.97h5.84v-4H857m-49.09-15.49h104v-185h-104v185zm-4 4h112v-193h-112v193z" mask="url(#c)"/><path fill="#54C7FC" d="M813.84 300.68h16.42v-16.42h-16.42v16.42zm25.19 0h16.42v-16.42h-16.42v16.42zm25.2 0h16.41v-16.42h-16.42v16.42zm25.18 0h16.42v-16.42h-16.42v16.42zm-75.57-154.54h16.42v-16.42h-16.42v16.42zm25.19 0h16.42v-16.42h-16.42v16.42zm25.19 0h16.42v-16.42h-16.42v16.42zm25.2 0h16.41v-16.42h-16.42v16.42zM813.83 171h16.42v-16.42h-16.43V171zm25.19 0h16.42v-16.42h-16.42V171zm25.19 0h16.42v-16.42h-16.42V171zm25.2 0h16.41v-16.42h-16.42V171zm-75.59 24.87h16.43v-16.42h-16.43v16.42zm25.2 0h16.42v-16.42h-16.42v16.42z" mask="url(#c)"/><path fill="#F9C44F" d="M835.92 91.52h48v-17h-48m-229.04 162.5h17v-48h-17" mask="url(#c)"/><path fill="#00305C" d="M835.92 76.52h48v-4h-48v4zm-214.04 160.5h4v-48h-4v48zm87.64-214.16h4V12.19h-4v10.67zm12 7.33h4v-18h-4v18zm12 0h4v-18h-4v18zm12 0h4v-18h-4v18zm-89 125.67h10.67v-4h-10.67v4zm0-12h18v-4h-18v4zm0-12h18v-4h-18v4zm-3-36.67h18v-4h-18v4zm0-10.67h11.34v-4h-11.34v4zm104-66.33h4v-6h-4v6zm12 12h4v-18h-4v18zm12-6.67h4V12.2h-4v11.33z" mask="url(#c)"/><path fill="#FFF" d="M359.52 343h247.36V169.5H359.52" mask="url(#c)"/><path fill="#00305C" d="M361.52 341h243.36V131.5H361.52V341zm-4 4h251.36V127.5H357.52V345z" mask="url(#c)"/><path fill="#54C7FC" d="M386.91 253.09l8.6-9.66a26.09 26.09 0 0 1-7.28-18.09c0-6.97 2.71-13.54 7.65-18.5a26 26 0 0 1 18.55-7.71c7 0 13.57 2.72 18.53 7.68a26.04 26.04 0 0 1 7.7 18.52c0 6.8-2.6 13.2-7.31 18.12l1.78 2 6.8 7.65.2-.2a38.78 38.78 0 0 0 11.42-27.57 38.85 38.85 0 0 0-11.48-27.63 38.78 38.78 0 0 0-27.64-11.47 38.79 38.79 0 0 0-27.67 11.53 38.83 38.83 0 0 0-11.42 27.58 38.95 38.95 0 0 0 11.57 27.75" mask="url(#c)"/><path fill="#B7BEC0" d="M433.35 243.45l1.78 2 6.8 7.65.21-.2a38.78 38.78 0 0 0 11.4-27.57 38.9 38.9 0 0 0-4.96-19.05l-7.83 4.42-3.4 1.92c2.15 3.85 3.3 8.2 3.3 12.7.01 6.81-2.58 13.22-7.3 18.13" mask="url(#c)"/><path fill="#00305C" d="M420.62 221.28l11.97-6.91 1 1.73-12.11 6.99a7.42 7.42 0 0 1-1.8 7.45 7.34 7.34 0 0 1-5.23 2.18h-.01a7.39 7.39 0 1 1 4.83-12.97l12.32-7.12 1 1.74-11.97 6.9zm19.58-10.44l5.78-3.34-5.78 3.34 1 1.73 5.78-3.34-2-3.46-5.78 3.34 1 1.73zm-.9 29.4l5.8 3.34-5.8-3.34-1 1.73 5.8 3.34 2-3.46-5.8-3.34-1 1.73zm-50.91-1.54l1 1.73-5.8 3.34-2-3.46 5.8-3.34 1 1.73zm.89-29.4l-5.79-3.34 5.79 3.34 1-1.73-5.79-3.34-2 3.47 5.79 3.33 1-1.73zm7.74-16.22l1.74-1 3.34 5.8-3.47 2-3.34-5.8 1.73-1zm16.16 2.3h4v-6.69h-4v6.69zm-34.97 30.5h6.68v-4h-6.68v4zm65.48 1.78h6.68v-4h-6.68v4zm-12.2-26.9l-3.46-2 3.34-5.8 3.46 2-3.34 5.8zm-19.44 22.18a3.38 3.38 0 1 0 2.39-1c-.9.01-1.75.36-2.39 1z" mask="url(#c)"/><path fill="#B7BEC0" d="M378.52 282.77h94v-8h-94" mask="url(#c)"/><path fill="#54C7FC" d="M378.52 282.77h68v-8h-68" mask="url(#c)"/><path fill="#FFF" d="M446.52 271.27v15-15" mask="url(#c)"/><path fill="#00305C" d="M444.52 286.27h4v-15h-4" mask="url(#c)"/><path fill="#B7BEC0" d="M378.52 308.77h94v-8h-94" mask="url(#c)"/><path fill="#54C7FC" d="M378.52 308.77h27v-8h-27" mask="url(#c)"/><path fill="#FFF" d="M406.52 297.27v15-15" mask="url(#c)"/><path fill="#00305C" d="M404.52 312.27h4v-15h-4" mask="url(#c)"/><path fill="#FFF" d="M501.52 246.19h85.67v-58.67h-85.67" mask="url(#c)"/><path fill="#00305C" d="M499.52 248.19h89.67v-62.67h-89.67v62.67zm4-4h81.67v-54.67h-81.67v54.67zm10.17-6.67h4v-39h-4v39zm18.66 0h4v-39h-4v39zm18.67 0h4v-39h-4v39zm18.67 0h4v-39h-4v39z" mask="url(#c)"/><path fill="#F9C44F" d="M521.02 225.19a5.33 5.33 0 1 1-10.66 0 5.33 5.33 0 0 1 10.66 0m18.67-16a5.33 5.33 0 1 1-10.67 0 5.33 5.33 0 0 1 10.67 0m18.67 16a5.33 5.33 0 1 1-10.67 0 5.33 5.33 0 0 1 10.67 0m18.66-9a5.33 5.33 0 1 1-10.66 0 5.33 5.33 0 0 1 10.66 0" mask="url(#c)"/><path fill="#FFF" d="M485.52 193.86a5.67 5.67 0 1 1-11.33 0 5.67 5.67 0 0 1 11.33 0" mask="url(#c)"/><path fill="#00305C" d="M479.86 190.19a3.67 3.67 0 1 0 0 7.34 3.67 3.67 0 0 0 0-7.34zm0 11.33a7.68 7.68 0 0 1 0-15.33 7.68 7.68 0 0 1 0 15.33z" mask="url(#c)"/><path fill="#F9C44F" d="M485.52 215.52a5.67 5.67 0 1 1-11.33 0 5.67 5.67 0 0 1 11.33 0" mask="url(#c)"/><path fill="#54C7FC" d="M485.52 237.19a5.67 5.67 0 1 1-11.33 0 5.67 5.67 0 0 1 11.33 0" mask="url(#c)"/><path fill="#FFF" d="M510.02 287.52l59-19.5-59 19.5" mask="url(#c)"/><path fill="#00305C" d="M510.65 289.42l-1.25-3.8 59-19.5 1.25 3.8-59 19.5m16.04 34.73l-2.33-3.25 55-39.5 2.33 3.25-55 39.5" mask="url(#c)"/><path fill="#FFF" d="M544.19 304.19a24.67 24.67 0 1 1-49.33 0 24.67 24.67 0 0 1 49.33 0" mask="url(#c)"/><path fill="#00305C" d="M519.52 281.52c-12.5 0-22.66 10.17-22.66 22.67s10.17 22.66 22.66 22.66a22.7 22.7 0 0 0 22.67-22.66 22.7 22.7 0 0 0-22.67-22.67zm0 49.33a26.7 26.7 0 0 1-26.66-26.66 26.7 26.7 0 0 1 26.66-26.67 26.7 26.7 0 0 1 26.67 26.67 26.7 26.7 0 0 1-26.67 26.66z" mask="url(#c)"/><path fill="#B7BEC0" d="M534.19 304.19a14.67 14.67 0 1 1-29.33 0 14.67 14.67 0 0 1 29.33 0" mask="url(#c)"/><path fill="#FFF" d="M589.19 275.52a14.67 14.67 0 1 1-29.34 0 14.67 14.67 0 0 1 29.34 0" mask="url(#c)"/><path fill="#00305C" d="M574.52 262.85a12.68 12.68 0 0 0-12.66 12.67c0 6.99 5.68 12.67 12.66 12.67a12.68 12.68 0 0 0 0-25.33zm0 29.34a16.69 16.69 0 0 1-16.66-16.67c0-9.19 7.47-16.67 16.66-16.67 9.2 0 16.67 7.48 16.67 16.67 0 9.2-7.48 16.67-16.67 16.67z" mask="url(#c)"/><path fill="#B7BEC0" d="M580.91 275.52a6.39 6.39 0 1 1-12.78 0 6.39 6.39 0 0 1 12.78 0" mask="url(#c)"/><path fill="#FFF" d="M588.86 299.52h-12 12" mask="url(#c)"/><path fill="#00305C" d="M576.86 301.52h12v-4h-12v4zm0 8.9h12v-4h-12v4zm0 8.88h12v-4h-12v4zm0 8.89h12v-4h-12v4z" mask="url(#c)"/><path fill="#FFF" d="M588.86 308.41h-12 12m0 8.9h-12 12m0 8.88h-12 12" mask="url(#c)"/><path fill="#B7BEC0" d="M127.44 291.51a6.07 6.07 0 1 1 0-12.15 6.07 6.07 0 0 1 0 12.15zm17.44-2.6v-6.36l-5.27-.44c-.23-.83-.54-1.62-.92-2.38l3.54-4.17-4.5-4.5-4.04 3.43c-.73-.42-1.51-.77-2.33-1.04l-.45-5.45h-6.35l-.44 5.27c-.84.23-1.63.54-2.38.92l-4.18-3.53-4.5 4.49 3.43 4.04c-.42.73-.77 1.51-1.04 2.33l-5.45.45v6.36l5.27.44c.23.83.54 1.62.92 2.38l-3.53 4.17 4.49 4.5 4.04-3.42c.73.42 1.51.76 2.33 1.03l.45 5.45h6.36l.44-5.27c.83-.23 1.62-.54 2.37-.92l4.18 3.53 4.5-4.49-3.43-4.04c.42-.73.77-1.51 1.04-2.33l5.45-.45z" mask="url(#c)"/><path fill="#F9C44F" d="M92.7 215.52a29.17 29.17 0 1 1-58.35 0 29.17 29.17 0 0 1 58.35 0" mask="url(#c)"/><path fill="#FFF" d="M69.87 215.52a6.34 6.34 0 1 1-12.69 0 6.34 6.34 0 0 1 12.69 0" mask="url(#c)"/><path fill="#00305C" d="M56.02 211.87a8.35 8.35 0 1 0 14.7-.57l12.77-12.92-2.85-2.81-12.71 12.87a8.3 8.3 0 0 0-9.33.35l-7.07-7.15-2.84 2.8 7.33 7.43zm7.5-.69a4.35 4.35 0 1 0 .01 8.7 4.35 4.35 0 0 0 0-8.7zm-3.04-20.53h4v-4.85h-4v4.85zm-27.14 27.5h4.86v-4h-4.86v4zM61.7 245.3h4v-4.85h-4v4.85zm26.29-28.35h4.85v-4h-4.86v4z" mask="url(#c)"/><path fill="#F9C44F" d="M127.37 186.27v-5.42l-4.82-.4a14.66 14.66 0 0 0-1.9-4.93l3.22-3.8-3.83-3.83-3.7 3.12a14.71 14.71 0 0 0-4.81-2.13l-.42-4.97h-5.42l-.4 4.82c-1.77.33-3.43.99-4.92 1.9l-3.8-3.22-3.84 3.83 3.13 3.69a14.69 14.69 0 0 0-2.14 4.82l-4.97.42v5.42l4.82.4c.34 1.77 1 3.44 1.9 4.92l-3.21 3.8 3.83 3.84 3.69-3.13c1.44.99 3.07 1.72 4.82 2.14l.42 4.97h5.42l.4-4.82c1.77-.34 3.43-1 4.92-1.9l3.8 3.21 3.83-3.83-3.12-3.69a14.7 14.7 0 0 0 2.14-4.82l4.96-.41" mask="url(#c)"/><path fill="#FFF" d="M115.22 183.22a7.16 7.16 0 1 1-14.32 0 7.16 7.16 0 0 1 14.32 0" mask="url(#c)"/><path fill="#00305C" d="M108.06 178.06a5.16 5.16 0 1 0 .01 10.33 5.16 5.16 0 0 0 0-10.33zm0 14.32a9.17 9.17 0 0 1 0-18.32 9.17 9.17 0 0 1 0 18.32z" mask="url(#c)"/><path fill="#FFF" d="M221.32 326.54v-11.6l-10.3-.86a31.44 31.44 0 0 0-4.07-10.53l6.88-8.13-8.2-8.2-7.89 6.67a31.48 31.48 0 0 0-10.32-4.56l-.88-10.62h-11.6l-.86 10.3c-3.8.72-7.35 2.12-10.53 4.07l-8.13-6.89-8.2 8.2 6.67 7.9a31.42 31.42 0 0 0-4.56 10.31l-10.62.89v11.6l10.3.86c.72 3.79 2.12 7.34 4.07 10.52l-6.89 8.14 8.2 8.2 7.9-6.68a31.4 31.4 0 0 0 10.31 4.57l.9 10.62h11.59l.86-10.3c3.79-.73 7.34-2.12 10.52-4.07l8.14 6.88 8.2-8.2-6.68-7.89c2.1-3.1 3.67-6.58 4.57-10.32l10.62-.89" mask="url(#c)"/><path fill="#00305C" d="M175.33 359.32h7.92l.83-9.99 1.5-.28c3.5-.67 6.81-1.95 9.85-3.8l1.23-.76 7.84 6.63 5.6-5.6-6.48-7.65.86-1.25c2-2.95 3.44-6.2 4.27-9.67l.34-1.4 10.23-.86v-7.91l-9.99-.83-.28-1.5a29.3 29.3 0 0 0-3.8-9.86l-.76-1.23 6.63-7.83-5.6-5.6-7.65 6.47-1.25-.85a29.4 29.4 0 0 0-9.67-4.28l-1.4-.34-.86-10.23h-7.91l-.83 9.99-1.5.28a29.3 29.3 0 0 0-9.86 3.81l-1.23.75-7.83-6.63-5.6 5.6 6.47 7.65-.85 1.26c-2 2.94-3.44 6.2-4.28 9.66l-.33 1.4-10.23.86v7.91l9.98.84.29 1.49a29.22 29.22 0 0 0 3.8 9.86l.76 1.23-6.63 7.83 5.6 5.6 7.64-6.47 1.26.86c2.94 2 6.2 3.44 9.66 4.27l1.4.34.86 10.23zm11.6 4h-15.28l-.92-11.05a33.2 33.2 0 0 1-8.29-3.65l-8.16 6.9-10.8-10.8 7.16-8.46a33.28 33.28 0 0 1-3.27-8.44l-10.66-.9v-15.27l11.05-.92c.83-2.92 2.06-5.7 3.65-8.28l-6.9-8.17 10.8-10.8 8.46 7.16a33.33 33.33 0 0 1 8.44-3.27l.9-10.66h15.27l.92 11.05c2.93.84 5.7 2.06 8.29 3.65l8.16-6.9 10.8 10.8-7.16 8.46a33.33 33.33 0 0 1 3.27 8.44l10.66.9v15.27l-11.05.92a33.25 33.25 0 0 1-3.65 8.29l6.9 8.16-10.8 10.8-8.46-7.16a33.2 33.2 0 0 1-8.44 3.27l-.9 10.66z" mask="url(#c)"/><path fill="#F9C44F" d="M203.01 320.01a23 23 0 1 1-46 0 23 23 0 0 1 46 0" mask="url(#c)"/><path fill="#00305C" d="M168.29 331.6L154 320.27l14.29-11.33 2.48 3.13-10.33 8.2 10.33 8.2-2.48 3.13zm23.44 0l-2.48-3.13 10.34-8.2-10.34-8.2 2.48-3.13 14.3 11.33-14.3 11.33zm-13.84 4.48l-3.84-1.12 8.88-30.5 3.84 1.13-8.88 30.49z" mask="url(#c)"/><g mask="url(#c)"><path fill="#FFF" d="M291.74 251.8v-19.64h-44.06v27.08l9.49-8.3 10.78 7.2 14.66-15.78"/><path fill="#00305C" d="M291.74 257.54v10.66h-44.06v-3.64l9.82-8.59 11.06 7.38 14.1-15.18 9.08 9.37zm0-5.75v-19.63h-44.06v27.08l9.49-8.3 10.78 7.2 14.66-15.78 9.13 9.43zm-48.06 20.41h52.06v-44.04h-52.06v44.05zm23.39-22.47a7.74 7.74 0 1 1 .02-15.49 7.74 7.74 0 0 1-.02 15.49zm0-11.47a3.74 3.74 0 1 0 .01 7.47 3.74 3.74 0 0 0-.01-7.47z"/><path fill="#F8C44F" d="M267.07 238.26a3.74 3.74 0 1 0 .01 7.47 3.74 3.74 0 0 0-.01-7.47z"/><path fill="#B7BEC0" d="M291.74 257.54v10.66h-44.06v-3.64l9.82-8.59 11.06 7.38 14.1-15.18 9.08 9.37"/></g><path fill="#FFF" d="M859.58 211v-5.77V211" mask="url(#c)"/><path fill="#00305C" d="M857.58 211h4v-5.77h-4V211zm-4.43 5.26l-5-2.89 2-3.46 5 2.88-2 3.47zm-2.65 9.34l-2-3.46 5-2.88 2 3.46-5 2.88zm19.19-.58l-5-2.89 2-3.46 5 2.88-2 3.47zm-3.34-9.35l-2-3.46 5-2.89 2 3.47-5 2.88z" mask="url(#c)"/><path fill="#FFF" d="M854.15 214.52l-5-2.88 5 2.89m.34 6.46l-5 2.88 5-2.88m5.77 2.94v5.77-5.77" mask="url(#c)"/><path fill="#282D33" d="M858.26 229.7h4v-5.77h-4" mask="url(#c)"/><path fill="#FFF" d="M865.69 220.4l5 2.89-5-2.89m-.34-6.46l5-2.89-5 2.89m-5.34 9.4l5.86 10.36-5.95-.05-5.95-.05 6.04-10.25" mask="url(#c)"/><path fill="#00305C" d="M857.45 231.63l4.98.04-2.45-4.33-2.53 4.29zm4.45 4.04l7.42.07-9.27-16.4-9.56 16.23 7.41.06-.04 4.9 4 .04.04-4.9zM296 302.39l19.02.12 3.18-11.22-25.23-.17L296 302.4zm-8.22-15.3h-.03l5.18 19.28 25.11.16 5.44-19.2-31.55-.21-1.57-5.86-7.74-.39-.2 4 4.83.24.53 1.98zm24.24 29.17h-.03a4.88 4.88 0 1 1 .03 0zm-.87-4.88c0 .49.38.88.87.88a.88.88 0 0 0 0-1.74.88.88 0 0 0-.87.87zm-12.81 4.8h-.03a4.88 4.88 0 1 1 .03 0zm-.88-4.89c0 .49.39.88.87.88a.87.87 0 1 0-.87-.88zm442.47-88.77h33v-4h-33v4zm7.92 40.93l-1.37-3.76 31.01-11.29 1.37 3.76-31 11.29zm224.16 0l-31-11.3 1.36-3.75 31.01 11.28-1.37 3.76zm-25.08-40.93v-4h33v4h-33zm-4.56-29.87l-1.37-3.76L972 177.6l1.37 3.76-31.01 11.29zm-164.88 0l-31-11.29 1.36-3.76 31.01 11.29-1.37 3.76z" mask="url(#c)"/><path fill="#F9C44F" d="M863.93 195.87h16.42v-16.43h-16.42" mask="url(#c)"/><path fill="#00305C" d="M870.14 189.66h-4.24v-4h4.24v-4.24h4v4.24h4.23v4h-4.23v4.23h-4v-4.23z" mask="url(#c)"/><g mask="url(#c)"><path fill="#FFF" d="M97.85 289.36H90.6v6.1l-6.73-6.1H56V266h41.85v23.36"/><path fill="#00305C" d="M94.59 304.46v-11.1h7.26V262H52v31.36h30.32l12.27 11.1zm3.26-15.1H90.6v6.1l-6.73-6.1H56V266h41.85v23.36zm-7-12.36H62.92v-4h27.93v4zm0 7H62.92v-4h27.93v4z"/></g><g mask="url(#c)" transform="translate(138 174)"><path fill="#FFF" d="M1.48 45.58h65.05v-44H1.47"/><use stroke="#00305C" stroke-width="8" mask="url(#d)" xlink:href="#a"/><path fill="#F8C44F" d="M8.33 39.76h51.34V7.4H8.33"/><path fill="#FFF" d="M38.19 23.58L34 25.99l-4.19 2.42v-9.67L34 21.16l4.19 2.42"/></g></g></svg>