<svg xmlns="http://www.w3.org/2000/svg" width="233" height="46" viewBox="0 0 233 46"><path fill="#FFF" fill-rule="evenodd" d="M9.57 22.877c0-12.427 10.206-22.5 22.772-22.5h12.283c12.576 0 22.77 10.07 22.77 22.5 0 12.426-10.204 22.5-22.77 22.5H32.342c-12.576 0-22.771-10.071-22.771-22.5zm8.412-8.848c0-4.314 3.531-7.811 7.906-7.811h25.191c4.366 0 7.906 3.502 7.906 7.811v17.695c0 4.315-3.531 7.812-7.906 7.812H25.888c-4.367 0-7.906-3.503-7.906-7.812V14.03zm35.244 2.148l.008-.003c-.606-1.851-2.333-3.187-4.368-3.187-2.045 0-3.777 1.347-4.376 3.21l.006.002a1.335 1.335 0 00-.099.505 1.32 1.32 0 001.314 1.328c.62 0 1.138-.433 1.278-1.014h.001c.257-.798 1-1.376 1.876-1.376.867 0 1.604.566 1.867 1.353l.004-.001c.13.594.655 1.038 1.283 1.038a1.32 1.32 0 001.314-1.328c0-.187-.039-.366-.108-.527zm-20.239 0l.008-.003c-.606-1.851-2.333-3.187-4.368-3.187-2.045 0-3.777 1.347-4.376 3.21l.006.002a1.335 1.335 0 00-.099.505 1.32 1.32 0 001.315 1.328c.619 0 1.138-.433 1.277-1.014h.001c.257-.798 1-1.376 1.876-1.376.867 0 1.604.566 1.868 1.353l.003-.001c.13.594.655 1.038 1.283 1.038a1.32 1.32 0 001.314-1.328 1.32 1.32 0 00-.108-.527zm5.89 18.182c-5.476 0-10.039-2.332-11.039-7.566h22.079c-1 5.234-5.563 7.566-11.04 7.566zm27.022 1.6a2.29 2.29 0 00.54-.205l7.588-3.938c1.292-.67 2.339-2.403 2.339-3.867V17.48c0-1.465-1.052-3.188-2.348-3.846L66.45 9.79a2.13 2.13 0 00-.795-.24 24.219 24.219 0 014.008 13.393 24.22 24.22 0 01-3.764 13.016zm-54.806-.002a2.35 2.35 0 01-.532-.203l-7.588-3.938C1.68 31.146.634 29.413.634 27.949V17.48c0-1.465 1.052-3.188 2.348-3.846L10.55 9.79c.283-.144.554-.222.803-.24a24.219 24.219 0 00-4.016 13.404 24.22 24.22 0 003.756 13.003zm81.84-24.932h9.673c2.997 0 5.18.651 6.551 1.952 1.371 1.302 2.057 2.98 2.057 5.037v11.997c0 2.057-.689 3.736-2.066 5.037C107.77 36.35 105.59 37 102.606 37h-9.673V11.025zm4.913 4.323v17.33h4.246c1.587 0 2.685-.309 3.295-.924.61-.616.914-1.584.914-2.904v-9.674c0-1.32-.305-2.289-.914-2.904-.61-.616-1.708-.924-3.295-.924h-4.246zm23.727-4.323V37h-4.913V11.025h4.913zM132.523 37h-4.913V11.025h16.053v4.323h-11.14v6.913h10.283v4.322h-10.283V37zm20.357 0h-4.913V11.025h16.053v4.323h-11.14v6.913h10.283v4.322H152.88V37zm26.355 0h-10.911V11.025h10.207c4.595 0 6.9 1.848 6.912 5.542v2.685c0 1.066-.228 1.926-.685 2.58-.457.654-1.194 1.197-2.21 1.628 1.194.254 2.124.8 2.79 1.638.667.838 1 1.892 1 3.161v2.78c0 1.867-.606 3.327-1.818 4.38-1.213 1.054-2.974 1.581-5.285 1.581zm2.19-6.589V28.45c0-.889-.216-1.546-.647-1.971-.432-.426-1.13-.638-2.095-.638h-5.446v7.103h5.027c1.143 0 1.955-.187 2.438-.562.482-.374.723-1.031.723-1.97zm-.895-10.93v-2.286c0-1.409-.863-2.113-2.59-2.113h-4.703v6.817h4.665c1.752 0 2.628-.806 2.628-2.419zm29.345-.857v10.778c0 2.387-.78 4.313-2.342 5.78-1.561 1.466-4.056 2.199-7.484 2.199-3.427 0-5.922-.733-7.484-2.2-1.561-1.466-2.342-3.392-2.342-5.78V18.625c0-2.387.78-4.314 2.342-5.78 1.562-1.466 4.057-2.2 7.484-2.2 3.428 0 5.923.734 7.484 2.2 1.562 1.466 2.342 3.393 2.342 5.78zm-14.739.285v10.207c0 1.295.378 2.276 1.133 2.942.756.667 2.016 1 3.78 1 1.765 0 3.025-.33 3.78-.99.756-.66 1.133-1.644 1.133-2.952V18.91c0-1.295-.377-2.275-1.133-2.942-.755-.666-2.015-1-3.78-1-1.764 0-3.024.334-3.78 1-.755.667-1.133 1.647-1.133 2.942zM220.426 37V15.348h-7.256v-4.323h19.424v4.323h-7.256V37h-4.913z"/></svg>